<svg width="610" height="613" viewBox="0 0 610 613" fill="none" xmlns="http://www.w3.org/2000/svg">
<path opacity="0.3" d="M89.2799 22.9199H543.49C580.17 22.9199 609.85 52.5999 609.85 89.2799V546.12C609.85 582.8 580.17 612.48 543.49 612.48H89.2799C52.6099 612.48 22.9199 582.8 22.9199 546.12V89.2799C22.9199 52.5999 52.6099 22.9199 89.2799 22.9199Z" fill="#1A1A1A"/>
<path d="M66.36 0H520.57C557.25 0 586.93 29.68 586.93 66.36V523.2C586.93 559.88 557.25 589.56 520.57 589.56H66.36C29.69 589.56 0 559.88 0 523.2V66.36C0 29.68 29.69 0 66.36 0Z" fill="#3C2C5B"/>
<path d="M79.0803 51.7998H493.98C516.79 51.7998 535.24 70.2498 535.24 93.0598V153.35C535.24 176.15 516.79 194.61 493.98 194.61H79.0803C56.2803 194.61 37.8203 176.15 37.8203 153.35V93.0598C37.8203 70.2498 56.2803 51.7998 79.0803 51.7998Z" fill="white"/>
<path d="M392.43 496.04V264.98C392.43 242.17 410.89 223.72 433.69 223.72H493.98C516.79 223.72 535.24 242.17 535.24 264.98V496.04C535.24 518.84 516.79 537.3 493.98 537.3H433.69C410.89 537.3 392.43 518.84 392.43 496.04Z" fill="#FFA0DC"/>
<path d="M222.35 496.04V436.44C222.35 413.63 240.8 395.18 263.61 395.18H323.21C346.02 395.18 364.47 413.63 364.47 436.44V496.04C364.47 518.84 346.02 537.3 323.21 537.3H263.61C240.8 537.3 222.35 518.84 222.35 496.04Z" fill="white"/>
<path d="M222.35 324.58V264.98C222.35 242.17 240.8 223.72 263.61 223.72H323.21C346.02 223.72 364.47 242.17 364.47 264.98V324.58C364.47 347.38 346.02 365.84 323.21 365.84H263.61C240.8 365.84 222.35 347.38 222.35 324.58Z" fill="white"/>
<path d="M51.5801 496.04V436.44C51.5801 413.63 70.03 395.18 92.84 395.18H152.44C175.24 395.18 193.7 413.63 193.7 436.44V496.04C193.7 518.84 175.24 537.3 152.44 537.3H92.84C70.03 537.3 51.5801 518.84 51.5801 496.04Z" fill="white"/>
<path d="M51.5801 324.58V264.98C51.5801 242.17 70.03 223.72 92.84 223.72H152.44C175.24 223.72 193.7 242.17 193.7 264.98V324.58C193.7 347.38 175.24 365.84 152.44 365.84H92.84C70.03 365.84 51.5801 347.38 51.5801 324.58Z" fill="white"/>
<path d="M419.48 162.63V88.02L381.66 131.57H432.09" stroke="#FFA0DC" stroke-width="4" stroke-linecap="round" stroke-linejoin="round"/>
<path d="M458.91 115.41C471.63 111.51 485.04 118.73 488.94 131.34C492.83 143.95 485.61 157.47 473.01 161.37C463.49 164.23 453.18 161.03 447.1 153.23" stroke="#FFA0DC" stroke-width="4" stroke-linecap="round" stroke-linejoin="round"/>
<path d="M448.14 88.02H484.81L458.45 115.52" stroke="#FFA0DC" stroke-width="4" stroke-linecap="round" stroke-linejoin="round"/>
<path d="M481.14 390.48H449.4" stroke="white" stroke-width="4" stroke-linecap="round" stroke-linejoin="round"/>
<path d="M481.14 371.34H449.4" stroke="white" stroke-width="4" stroke-linecap="round" stroke-linejoin="round"/>
</svg>
