<svg width="1000" height="750" viewBox="0 0 1000 750" fill="none" xmlns="http://www.w3.org/2000/svg">
<g clip-path="url(#clip0_133_90)">
<rect width="1000" height="749.751" fill="white"/>
<path d="M1000 0H0V749.751H1000V0Z" fill="#FAEEE7"/>
<path d="M611.356 105.44H236.406V349.109H611.356V105.44Z" fill="#CECECE"/>
<path d="M624.413 356.256C624.413 360.549 620.931 364.029 616.638 364.029H231.119C226.825 364.029 223.344 360.549 223.344 356.256C223.344 351.97 226.825 348.49 231.119 348.49H616.638C620.931 348.49 624.413 351.97 624.413 356.256Z" fill="#FF4F32"/>
<path opacity="0.25" d="M547.075 263.05L504.481 305.392L533.506 334.57L576.094 292.234L547.075 263.05Z" fill="#CCCCCC"/>
<path d="M545.144 254.547L502.55 296.883L531.575 326.06L574.169 283.724L545.144 254.547Z" fill="#61CCFF"/>
<path d="M563.782 273.24L521.194 315.582L531.626 326.066L574.219 283.731L563.782 273.24Z" fill="#FF593E"/>
<path opacity="0.25" d="M570.812 198.928C576.106 198.928 580.387 194.642 580.387 189.356C580.387 184.076 576.106 179.784 570.812 179.784C565.519 179.784 561.237 184.076 561.237 189.356C561.237 194.642 565.519 198.928 570.812 198.928Z" fill="#A5A5A5"/>
<path opacity="0.25" d="M527.288 210.742C532.575 210.742 536.863 206.45 536.863 201.171C536.863 195.885 532.575 191.593 527.288 191.593C521.994 191.593 517.713 195.885 517.713 201.171C517.713 206.45 521.994 210.742 527.288 210.742Z" fill="#A5A5A5"/>
<path opacity="0.25" d="M558.312 168.594C563.606 168.594 567.887 164.308 567.887 159.022C567.887 153.736 563.606 149.45 558.312 149.45C553.025 149.45 548.737 153.736 548.737 159.022C548.737 164.308 553.025 168.594 558.312 168.594Z" fill="#A5A5A5"/>
<path d="M568.2 192.467C573.494 192.467 577.775 188.181 577.775 182.895C577.775 177.61 573.494 173.317 568.2 173.317C562.913 173.317 558.625 177.61 558.625 182.895C558.625 188.181 562.913 192.467 568.2 192.467Z" fill="#3C2C5B"/>
<path d="M524.675 204.276C529.968 204.276 534.25 199.996 534.25 194.704C534.25 189.418 529.968 185.132 524.675 185.132C519.381 185.132 515.1 189.418 515.1 194.704C515.1 199.996 519.381 204.276 524.675 204.276Z" fill="#FF593E"/>
<path d="M555.644 162.134C560.931 162.134 565.219 157.847 565.219 152.555C565.219 147.27 560.931 142.984 555.644 142.984C550.35 142.984 546.062 147.27 546.062 152.555C546.062 157.847 550.35 162.134 555.644 162.134Z" fill="#61CCFF"/>
<path d="M342.794 194.516C357.844 203.47 371.65 180.221 363.25 173.505C355.419 167.288 345.656 177.672 345.656 177.672L350.256 161.015C350.256 161.015 357.344 165.614 367.356 161.015" stroke="#171307" stroke-width="4" stroke-linecap="round" stroke-linejoin="round"/>
<path d="M316.369 167.975C318.419 160.14 331.975 158.091 334.588 165.864C339.875 181.652 311.144 184.57 310.65 196.566C321.094 190.23 322.65 196.566 332.538 196.566" stroke="#131005" stroke-width="4" stroke-linecap="round" stroke-linejoin="round"/>
<path d="M277.068 183.951L289.318 197.622L303 147.151H381.593" stroke="#090701" stroke-width="4" stroke-linecap="round" stroke-linejoin="round"/>
<path d="M392.6 172.136H407.462" stroke="#181407" stroke-width="4" stroke-linecap="round" stroke-linejoin="round"/>
<path d="M391.544 180.346H406.344" stroke="#221C0B" stroke-width="4" stroke-linecap="round" stroke-linejoin="round"/>
<path d="M479.156 246.855H494.019" stroke="#18150A" stroke-width="4" stroke-linecap="round" stroke-linejoin="round"/>
<path d="M478.037 255.121H492.9" stroke="#0F0C04" stroke-width="4" stroke-linecap="round" stroke-linejoin="round"/>
<path d="M399.875 253.628C401.431 244.181 411.068 242.813 415.3 244.681C419.156 246.299 424.131 252.947 417.475 261.713C411.818 269.298 398.075 272.841 398.756 259.845C398.756 259.845 400.875 231.504 419.837 232.991" stroke="#211E15" stroke-width="4" stroke-linecap="round" stroke-linejoin="round"/>
<path d="M443.031 268.673L452.481 232.873L428.794 251.829H452.981" stroke="#15130C" stroke-width="4" stroke-linecap="round" stroke-linejoin="round"/>
<path d="M364.188 258.358L376.437 272.028L390.112 221.558H468.713" stroke="#17140C" stroke-width="4" stroke-linecap="round" stroke-linejoin="round"/>
<path d="M438.15 366.884H391.65C391.65 366.884 386.256 394.35 402.425 408.914H448.925C432.756 394.35 438.15 366.884 438.15 366.884Z" fill="white"/>
<path d="M397.412 531.592H411.612V604.474H397.412V531.592Z" fill="#3C2C5B"/>
<path opacity="0.2" d="M411.612 551.598V544.837H397.412V554.897L411.612 551.598Z" fill="#332749"/>
<path d="M388.019 533.829H420.444V548.024H388.019V533.829Z" fill="#A786DF"/>
<path opacity="0.2" d="M420.443 533.829H388.074V544.5L420.443 537.74V533.829Z" fill="black"/>
<path d="M388.3 599.444H420.725V613.64H388.3V599.444Z" fill="#A786DF"/>
<path d="M476.743 527.343L492.343 438.979C494.243 428.251 487.087 419.585 476.356 419.585H409.487C398.756 419.585 388.575 428.251 386.675 438.979L371.081 527.343C370.631 529.355 371.862 531.367 373.875 531.817C374.206 531.873 374.543 531.929 374.881 531.929H471.381C474.062 531.873 476.3 529.968 476.743 527.343Z" fill="#A786DF"/>
<path d="M323.725 526.618V526.843C323.725 530.698 326.856 533.829 330.712 533.829H469.643C473.5 533.829 476.631 530.698 476.631 526.843V526.618C476.631 522.764 473.5 519.633 469.643 519.633H330.712C326.856 519.633 323.725 522.764 323.725 526.618Z" fill="#3C2C5B"/>
<path d="M448.569 634.095V621.518C448.569 617.157 445.044 613.64 440.687 613.64H368.337C363.975 613.64 360.456 617.157 360.456 621.518V634.095" stroke="black" stroke-width="4" stroke-linecap="round" stroke-linejoin="round"/>
<path d="M404.512 613.64V623.867" stroke="black" stroke-width="4" stroke-linecap="round" stroke-linejoin="round"/>
<path d="M448.4 647.728C441.638 647.728 436.156 642.255 436.156 635.489C436.156 628.735 441.638 623.249 448.4 623.249C455.163 623.249 460.644 628.735 460.644 635.489C460.644 642.255 455.163 647.728 448.4 647.728Z" fill="#3C2C5B"/>
<path d="M448.4 638.9C446.519 638.9 444.987 637.375 444.987 635.489C444.987 633.608 446.519 632.083 448.4 632.083C450.281 632.083 451.812 633.608 451.812 635.489C451.812 637.375 450.281 638.9 448.4 638.9Z" fill="#C7B8E5"/>
<path d="M359.206 647.653C352.475 646.985 347.556 640.993 348.225 634.264C348.887 627.541 354.887 622.624 361.612 623.293C368.344 623.961 373.256 629.953 372.594 636.682C371.931 643.405 365.931 648.316 359.206 647.653Z" fill="#3C2C5B"/>
<path d="M360.4 638.9C358.519 638.9 356.987 637.375 356.987 635.489C356.987 633.608 358.519 632.083 360.4 632.083C362.281 632.083 363.812 633.608 363.812 635.489C363.812 637.375 362.281 638.9 360.4 638.9Z" fill="#C7B8E5"/>
<path d="M404.737 647.728C397.974 647.728 392.493 642.255 392.493 635.489C392.493 628.735 397.974 623.249 404.737 623.249C411.499 623.249 416.981 628.735 416.981 635.489C416.981 642.255 411.499 647.728 404.737 647.728Z" fill="#3C2C5B"/>
<path d="M404.737 638.9C402.849 638.9 401.324 637.375 401.324 635.489C401.324 633.608 402.849 632.083 404.737 632.083C406.618 632.083 408.143 633.608 408.143 635.489C408.143 637.375 406.618 638.9 404.737 638.9Z" fill="#C7B8E5"/>
<path d="M411.612 599.444H397.412" stroke="black" stroke-width="4" stroke-linecap="round" stroke-linejoin="round"/>
<path d="M411.331 549.199H397.743" stroke="black" stroke-width="4" stroke-linecap="round" stroke-linejoin="round"/>
<path d="M420.443 534.441H388.631" stroke="#332749" stroke-width="4" stroke-linecap="round" stroke-linejoin="round"/>
<path d="M857.794 564.544C864.856 564.544 870.581 558.814 870.581 551.754C870.581 544.694 864.856 538.965 857.794 538.965C850.725 538.965 845 544.694 845 551.754C845 558.814 850.725 564.544 857.794 564.544Z" fill="#FF4F32"/>
<path d="M183.387 251.598C188.112 251.598 191.944 247.768 191.944 243.044C191.944 238.321 188.112 234.491 183.387 234.491C178.662 234.491 174.831 238.321 174.831 243.044C174.831 247.768 178.662 251.598 183.387 251.598Z" fill="#FF4F32"/>
<path d="M173.912 386.253L166.519 415.162L159.994 387.571L119.05 402.547L153.056 376.487L126.637 358.737L157.931 362.529L160.7 331.059L170.637 361.111L201.269 346.866L180.887 373.445L202.669 394.213L173.912 386.253Z" fill="white"/>
<path d="M524 380.911L522.519 384.429L521.269 388.221C521.269 388.271 521.269 388.315 521.362 388.315L525.525 388.452L529.462 387.253C529.506 387.253 529.506 387.203 529.506 387.203L527.331 383.779L525.062 380.774C524.737 380.399 524.137 380.492 524 380.911Z" fill="#FFA0DC"/>
<path d="M543.862 373.039L541.637 375.957L539.506 379.243V379.287L543.487 380.536L547.612 380.399C547.656 380.399 547.7 380.349 547.656 380.305L546.45 376.556L545.062 373.133C544.925 372.67 544.181 372.576 543.862 373.039Z" fill="#FFA0DC"/>
<path d="M533.906 419.598L539.506 379.293C539.506 379.243 539.556 379.243 539.556 379.243L547.7 380.399C547.75 380.399 547.75 380.449 547.75 380.449L542.144 420.76L533.906 419.598Z" fill="#231F20"/>
<path d="M544.693 371.333L541.681 375.956L546.543 376.606L544.787 371.333C544.737 371.283 544.693 371.283 544.693 371.333Z" fill="#231F20"/>
<path d="M521.269 388.271L529.463 387.203C529.506 387.203 529.506 387.203 529.506 387.253L534.738 427.608L526.45 428.67L521.219 388.315C521.219 388.271 521.269 388.271 521.269 388.271Z" fill="#3C2C5B"/>
<path d="M524.231 379.149L522.469 384.428L527.287 383.779L524.325 379.149C524.325 379.105 524.275 379.105 524.231 379.149Z" fill="#3C2C5B"/>
<path d="M545.481 451.444H521.268C521.268 451.444 521.218 451.444 521.218 451.394L515.712 425.109L513.537 408.495C513.537 408.445 513.537 408.445 513.581 408.445H553.306C553.35 408.445 553.35 408.495 553.35 408.495L551.175 425.109L545.481 451.444C545.525 451.444 545.525 451.394 545.481 451.444Z" fill="#FF4F32"/>
<path d="M515.712 425.109L519.368 452.875H547.562L551.174 425.109H515.712Z" fill="#FFA0DC"/>
<path d="M885.3 426.483L863.013 401.604L873.944 431.831L848.231 439.491L875.656 445.808L871.663 474.842L887.513 450.007L908.219 468.507L896.638 443.453L923.081 435.599L894.581 430.594L902.575 403.203L885.3 426.483Z" fill="#FFC930"/>
<path d="M852.801 281.706C860.632 281.706 866.976 275.358 866.976 267.536C866.976 259.714 860.632 253.366 852.801 253.366C844.976 253.366 838.632 259.714 838.632 267.536C838.632 275.358 844.976 281.706 852.801 281.706Z" fill="#61CCFF"/>
<path d="M148.044 527.325C154.625 527.325 159.962 521.989 159.962 515.41C159.962 508.825 154.625 503.489 148.044 503.489C141.462 503.489 136.125 508.825 136.125 515.41C136.125 521.989 141.462 527.325 148.044 527.325Z" fill="#61CCFF"/>
<path d="M248.994 405.678H348.338L341.794 363.935C341.019 358.762 339.294 353.764 336.682 349.247L335.369 355.669C331.8 373.151 316.45 385.697 298.607 385.697C280.757 385.697 265.413 373.151 261.844 355.669L260.532 349.247C257.975 353.826 256.25 358.762 255.419 363.935L248.994 405.678Z" fill="#61CCFF"/>
<path opacity="0.25" d="M261.9 355.669C265.469 376.544 275.644 393.844 298.606 393.844C321.569 393.844 331.8 376.6 335.369 355.669L335.725 353.583C335.25 352.514 334.712 351.446 334.119 350.434L332.869 356.319C329.537 372.376 315.2 383.972 298.544 383.972C281.887 383.972 267.55 372.439 264.219 356.319L262.969 350.434C262.375 351.446 261.9 352.458 261.425 353.526L261.9 355.669Z" fill="black"/>
<path d="M297.538 312.134H299.738C306.813 312.134 312.525 317.844 312.525 324.923V339.375C312.525 346.447 306.813 352.158 299.738 352.158H297.538C290.457 352.158 284.744 346.447 284.744 339.375V324.923C284.744 317.844 290.457 312.134 297.538 312.134Z" stroke="#22181F" stroke-width="4" stroke-linecap="round" stroke-linejoin="round"/>
<path d="M348.281 405.678H248.994L245.181 430.301C243.637 440.354 250.481 449.688 260.531 451.231C261.425 451.35 262.375 451.475 263.331 451.475H334C344.175 451.475 352.381 443.265 352.381 433.094C352.381 432.144 352.325 431.194 352.144 430.245L348.281 405.678Z" fill="#FF4F32"/>
<path d="M248.575 405.803H348.694" stroke="#78423A" stroke-width="4" stroke-linecap="round" stroke-linejoin="round"/>
<path d="M298.606 385.641C316.45 385.641 331.8 373.089 335.369 355.607L336.681 349.184C328.944 335.445 314.369 326.941 298.606 326.885C282.844 326.885 268.269 335.389 260.531 349.184L261.844 355.607C265.469 373.089 280.819 385.641 298.606 385.641Z" fill="#A786DF"/>
<path d="M284.744 357.275H312.525" stroke="#22181F" stroke-width="4" stroke-linecap="round" stroke-linejoin="round"/>
<path d="M558.918 445.802H249.693C235.025 445.802 223.162 457.66 223.162 472.324V648.759C223.162 653.195 226.781 656.813 231.212 656.813C231.275 656.813 231.275 656.813 231.337 656.813C235.775 656.625 239.268 652.945 239.206 648.509V476.385C239.206 468.394 245.7 461.903 253.687 461.903H554.862C562.85 461.903 569.343 468.394 569.343 476.385V648.447C569.281 652.883 572.775 656.563 577.212 656.75C581.643 656.875 585.325 653.32 585.45 648.884C585.45 648.822 585.45 648.759 585.45 648.697V472.324C585.45 457.66 573.587 445.802 558.918 445.802Z" fill="#3C2C5B"/>
<path d="M641.819 393.538H596.106C596.106 393.538 590.806 420.541 606.7 434.855H652.412C636.519 420.541 641.819 393.538 641.819 393.538Z" fill="#FFC930"/>
<path d="M807.8 530.255C803.975 508.8 805.793 486.37 806.768 464.127C808.043 433.862 807.618 403.897 788.956 376.794C788.956 376.794 781.294 376.794 772.419 376.794C772.419 376.731 772.419 376.731 772.419 376.731L750.775 371.933L721.287 376.85C721.287 376.85 672.712 419.517 631.737 526.481C622.494 550.673 614.775 570.848 608.331 587.505L632.225 606.405L665.175 610.722C675.937 579.907 676.662 565.018 684.325 549.698C690.162 538.09 723.05 490.137 743.481 459.329C743.906 482.358 745.244 508.918 748.219 537.059C750.287 556.69 755.275 579.664 758.862 600.388L791.325 608.473L818.137 600.569C817.587 567.205 811.087 545.144 807.8 530.255Z" fill="#3C2C5B"/>
<path d="M776.007 192.398C765.975 187.413 758.013 187.656 751.807 190.149C744.088 192.698 738.007 197.016 734.844 204.063C732.719 208.806 731.2 213.791 729.925 217.134C729.8 217.434 729.557 217.621 729.257 217.678C727.857 217.803 724.025 218.346 723.475 220.108C722.807 222.239 724.875 225.156 725.788 226.25C726.032 226.55 726.094 226.918 725.913 227.218C722.019 236.153 721.225 242.051 723.175 247.461C724.813 252.079 729.557 257.789 742.932 257.065L742.144 260.651L743.782 263.444L783.725 263.993L786.582 260.588L788.713 250.623C788.713 250.623 790.413 228.618 790.963 224.607C792.419 213.485 792.844 200.846 776.007 192.398Z" fill="#935757"/>
<path opacity="0.3" d="M742.932 257.121L741.775 262.413C741.775 262.469 741.838 262.531 741.838 262.469L755.575 254.203C755.638 254.147 755.575 254.084 755.519 254.084C749.319 256.577 743.538 257.002 742.932 257.121C742.932 257.064 742.932 257.064 742.932 257.121Z" fill="#0D0D0D"/>
<path d="M758.863 654.176C757.4 655.813 755.763 657.338 754.119 658.612C742.869 667.484 734.969 667.241 733.875 684.197L804.213 682.011C804.213 682.011 811.938 676.356 814.794 654.42C815.825 646.273 816.738 636.426 817.406 625.123C817.406 625.123 817.406 625.061 817.35 625.061L788.531 617.888L762.569 625.061L762.506 625.123C763.844 638.675 763.3 649.315 758.863 654.176Z" fill="#935757"/>
<path d="M818.076 600.569L758.926 600.388C758.863 600.388 758.863 600.45 758.863 600.45C760.382 609.141 761.782 617.588 762.507 625.005C762.507 625.061 762.507 625.061 762.569 625.061H817.351C817.407 625.061 817.407 625.061 817.407 625.005C817.469 623.667 817.532 622.387 817.588 620.993C818.076 613.821 818.257 607.011 818.138 600.631C818.138 600.569 818.138 600.569 818.076 600.569Z" fill="#61CCFF"/>
<path opacity="0.3" d="M743.356 428.695L742.444 428.389C738.8 427.233 734.969 429.426 734.056 433.131L719.219 495.548C727.731 482.908 736.369 470.081 743.481 459.329C743.237 448.264 743.237 437.936 743.356 428.695Z" fill="#1A1A1A"/>
<path opacity="0.3" d="M806.769 464.127C807.319 453.793 807.438 442.978 806.832 433.012C805.313 399.099 789.02 376.793 789.02 376.793L772.482 376.731L765.426 445.046L784.519 473.549C788.226 479.016 796.251 479.141 800.02 473.668L806.769 464.127Z" fill="#1A1A1A"/>
<path d="M579.082 650.409C576.707 653.139 573.669 655.569 570.55 657.781C571.988 664.16 548.619 669.246 547.588 684.56C547.588 684.622 547.588 684.622 547.65 684.622L621.944 682.985C622.369 682.679 634.894 674.351 645.957 654.114C649.3 647.978 652.763 640.987 656.169 633.452V633.389L631.244 613.152C631.244 613.152 631.244 613.152 631.182 613.152L599.325 610.172C599.325 610.172 599.263 610.172 599.263 610.234C590.813 631.321 584.613 644.023 579.082 650.409Z" fill="#935757"/>
<path d="M599.388 610.11L656.169 633.327C656.231 633.327 656.231 633.327 656.231 633.271C658.6 627.979 660.85 622.387 663.038 616.551C663.769 614.49 664.5 612.603 665.169 610.722C665.169 610.66 665.169 610.66 665.106 610.66L608.381 587.505C608.325 587.505 608.325 587.505 608.325 587.561C605.038 595.952 602.119 603.487 599.388 610.054C599.325 610.11 599.325 610.11 599.388 610.11Z" fill="#61CCFF"/>
<path d="M604.794 678H578.594C578.531 678 578.531 678 578.531 677.937C578.531 670.952 574.644 662.442 570.569 657.763H570.506C558.531 665.904 543.087 671.433 542.112 686.691C542.112 686.753 542.112 686.753 542.175 686.753L624.919 686.809H624.981C625.406 686.266 635.075 674.295 646.019 654.233C646.019 654.176 646.019 654.176 645.956 654.114C623.094 650.771 607.169 665.904 604.794 678C604.856 678 604.856 678 604.794 678Z" fill="#231F20"/>
<path d="M823.081 200.521C837.406 191.205 842.65 173.867 834.794 161.796C826.938 149.725 808.956 147.495 794.625 156.81C780.306 166.126 775.063 183.47 782.919 195.541C790.775 207.606 808.756 209.836 823.081 200.521Z" fill="black"/>
<path d="M743.481 459.328L743.356 428.695" stroke="#1A1A1A" stroke-width="4" stroke-linecap="round" stroke-linejoin="round"/>
<path d="M578.719 247.949C571.363 245.212 566.2 245.456 569.969 251.716C570.756 253.053 571.606 254.265 572.581 255.421C572.763 255.665 572.581 255.971 572.275 255.908C564.006 254.446 541.088 249.954 540.969 257.852C540.969 258.095 540.781 258.276 540.544 258.276C536.163 258.945 534.644 263.325 536.225 265.874C536.288 265.999 536.288 266.118 536.163 266.236C531.606 269.342 535.131 273.653 535.8 274.446C535.863 274.502 535.919 274.627 535.863 274.746C535.738 275.721 535.431 280.644 542.731 283.987C550.45 287.573 580.544 296.201 580.544 296.201C580.544 296.201 585.594 301.974 597.206 312.671H597.263L617.45 300.7L626.263 277.42V277.364C609.481 264.899 591.613 252.747 578.719 247.949Z" fill="#935757"/>
<path d="M777.65 189.481C758.862 181.458 742.75 185.588 734.844 204.063C735.756 205.038 739.831 206.256 745 204.307C745.181 204.251 745.425 204.369 745.362 204.613C745.181 206.494 745.181 213.242 754 213.548C754.181 213.548 754.3 213.729 754.238 213.91C753.813 215.31 752.781 220.777 758.494 225.094C758.619 225.156 758.737 225.156 758.8 225.094C760.5 224.063 774.363 215.978 780.263 223.332C786.281 232.142 774.306 241.626 771.081 243.875C770.719 244.119 770.719 244.725 771.081 244.968C780.019 252.016 788.65 250.56 788.65 250.56C793.087 226.856 803.606 204.369 777.65 189.481Z" fill="black"/>
<path d="M738.132 221.995C739.169 221.995 740.013 221.151 740.013 220.108C740.013 219.065 739.169 218.227 738.132 218.227C737.088 218.227 736.244 219.065 736.244 220.108C736.244 221.151 737.088 221.995 738.132 221.995Z" fill="black"/>
<path d="M728.1 686.753H808.35C808.35 686.753 808.413 686.753 808.413 686.69C808.656 686.022 811.938 675.688 814.794 654.476C814.794 654.42 814.731 654.42 814.731 654.42C799.594 657.394 789.625 668.64 787.8 678C787.8 678 787.8 678.062 787.738 678.062H761.538C761.475 678.062 761.475 678.062 761.475 678C761.475 671.495 758.069 663.536 754.238 658.675H754.181C743.056 667.366 729.313 669.427 728.156 686.69C728.038 686.69 728.038 686.753 728.1 686.753Z" fill="#231F20"/>
<path d="M785.007 267.817C785.125 267.392 785.675 264.599 786.582 260.707C786.582 260.651 786.582 260.651 786.525 260.651L742.2 260.707C742.2 260.707 742.144 260.707 742.144 260.769L741.719 262.594L740.682 267.211L740.625 267.273C740.075 267.211 735.513 266.849 729.619 267.336H729.557C728.525 269.035 727.432 272.259 727.369 272.497C727.369 272.497 727.369 272.497 727.369 272.559L746.7 335.707C746.7 335.769 746.763 335.769 746.825 335.707L796.188 270.797V270.735C796.132 270.616 795.888 269.948 795.763 269.641C795.763 269.641 795.763 269.585 795.707 269.585C792.238 268.61 788.588 268.061 785.063 267.879C785.063 267.879 785.007 267.879 785.007 267.817Z" fill="white"/>
<path d="M799.231 600.632C799.231 600.632 795.156 557.477 789.2 519.858C778.556 452.212 779.775 377.037 779.775 377.037" stroke="#1A1A1A" stroke-width="4" stroke-linecap="round" stroke-linejoin="round"/>
<path d="M774.181 453.493C778.012 451.425 778.8 443.952 774.425 444.071L769.625 448.994L774.181 453.493Z" fill="#935757"/>
<path d="M828.169 412.769L789.5 374.788L776.612 362.142H776.55L762.144 376.793L743.238 396L736.125 405.297V405.359L789.075 462.727H789.137L832.606 418.786V418.73L828.169 412.769Z" fill="#61CCFF"/>
<path d="M743.238 396.056L734.607 404.809C731.932 407.546 731.932 411.982 734.663 414.656L785.675 464.795C786.1 465.22 786.825 465.22 787.25 464.795L799.963 451.85L743.238 396.056Z" fill="#B5C5CC"/>
<path d="M823.063 287.573C816.25 278.639 806.588 272.378 795.825 269.585H795.763L749.194 326.223C749.131 326.285 749.131 326.223 749.075 326.223L729.681 267.274C729.681 267.274 729.619 267.274 729.619 267.211C722.138 267.88 711.806 269.948 701.894 275.234C685.906 283.806 658.731 301.25 657.694 301.918H657.638C657.15 301.55 651.069 296.383 642.131 289.398C637.513 285.749 632.163 281.675 626.444 277.42C626.388 277.42 626.388 277.42 626.388 277.42L597.388 312.671C597.388 312.734 597.388 312.734 597.388 312.734C637.938 351.327 652.588 358.681 687.544 341.843C694.238 338.625 701.713 334.489 710.288 329.565C710.344 329.565 710.344 329.565 710.344 329.628C710.831 331.696 720.925 375.331 721.288 376.793C721.288 376.793 721.288 376.793 721.35 376.85C722.381 376.85 743.725 376.85 762.206 376.793L776.613 362.142C776.675 362.142 776.675 362.142 776.675 362.142L789.563 374.788L799.35 340.812L811.025 361.78C811.088 361.961 811.088 362.142 810.9 362.205C808.956 363.604 795.95 373.27 781.231 384.691V384.753L786.4 409.914L804.338 419.092H804.4C823.55 409.614 846.163 395.087 852 377.093C858.75 355.825 838.081 305.805 823.063 287.573Z" fill="#A786DF"/>
<path opacity="0.3" d="M776.55 362.204C776.613 362.204 776.613 362.204 776.613 362.204L789.5 374.844L799.294 340.874V340.811L792.238 329.021C792.238 328.959 792.175 328.959 792.119 329.021L750.838 376.793C750.775 376.849 750.838 376.912 750.894 376.912H762.144L776.55 362.204Z" fill="#B7699A"/>
<path d="M739.044 422.191C739.65 425.352 744.025 425.352 744.025 425.352C742.144 427.845 740.862 429.726 740.862 429.726C737.706 435.986 744.637 439.148 744.637 439.148C745.244 446.683 752.175 446.014 752.175 446.014C755.337 454.162 760.319 452.275 760.319 452.275C764.087 460.422 774.244 453.493 774.244 453.493L771.75 450.756C770.9 449.782 770.9 448.326 771.75 447.351C773.15 445.771 775.762 443.221 780.381 439.754C785.975 435.686 790.475 430.338 793.512 424.078C796.619 422.741 800.569 420.854 804.156 419.092C804.212 419.092 804.212 419.029 804.156 419.029L781.112 384.753C781.112 384.753 781.05 384.691 781.05 384.753C761.113 400.254 738.375 418.73 739.044 422.191Z" fill="#935757"/>
<path d="M786.582 465.77L785.732 464.977C783.238 462.484 783.182 458.473 785.675 455.986L828.169 412.769L833.457 417.999L837.713 422.191C837.894 422.372 837.894 422.741 837.713 422.922L795.582 465.77C793.15 468.201 789.2 468.263 786.582 465.77Z" fill="white"/>
<path opacity="0.3" d="M650.763 306.535L657.576 301.974C657.638 301.974 657.638 301.918 657.576 301.856C656.907 301.306 650.888 296.201 642.313 289.516C642.257 289.454 642.194 289.516 642.194 289.579L650.644 306.473C650.707 306.598 650.707 306.598 650.763 306.535Z" fill="#B7699A"/>
<path d="M730.894 232.141C731.687 232.997 735.031 234.334 737.156 232.085" stroke="#0D0D0D" stroke-width="4" stroke-linecap="round" stroke-linejoin="round"/>
<path d="M742.932 257.064C746.213 256.821 752.6 255.359 755.575 254.084" stroke="#0D0D0D" stroke-width="4" stroke-linecap="round" stroke-linejoin="round"/>
<path d="M764.944 233.666L771.813 230.561" stroke="#0D0D0D" stroke-width="4" stroke-linecap="round" stroke-linejoin="round"/>
<path d="M535.913 274.565C535.913 274.565 566.557 279.669 569.657 280.338C569.657 280.338 584.794 277.177 597.869 279.063" stroke="#0D0D0D" stroke-width="4" stroke-linecap="round" stroke-linejoin="round"/>
<path d="M536.101 266.055L572.219 271.591" stroke="#0D0D0D" stroke-width="4" stroke-linecap="round" stroke-linejoin="round"/>
<path d="M540.9 258.033L575.313 263.444" stroke="#0D0D0D" stroke-width="4" stroke-linecap="round" stroke-linejoin="round"/>
<path d="M799.294 340.812L792.237 328.959" stroke="#B7699A" stroke-width="4" stroke-linecap="round" stroke-linejoin="round"/>
<path d="M744.025 425.352C746.882 422.316 749.8 420.185 749.8 420.185" stroke="#0D0D0D" stroke-width="4" stroke-linecap="round" stroke-linejoin="round"/>
<path d="M744.638 439.148C745.244 436.049 746.156 432.887 751.081 428.333" stroke="#0D0D0D" stroke-width="4" stroke-linecap="round" stroke-linejoin="round"/>
<path d="M752.175 446.014C752.475 441.153 753.331 439.085 757.462 434.83" stroke="#0D0D0D" stroke-width="4" stroke-linecap="round" stroke-linejoin="round"/>
<path d="M760.319 452.275C760.382 446.258 761.294 444.74 764.576 441.397" stroke="#0D0D0D" stroke-width="4" stroke-linecap="round" stroke-linejoin="round"/>
<path d="M650.763 306.536L657.638 301.975" stroke="#B7699A" stroke-width="4" stroke-linecap="round" stroke-linejoin="round"/>
<path opacity="0.3" d="M687.731 341.786C695.269 338.318 709.494 329.996 710.288 329.565C710.288 329.565 710.344 329.509 710.288 329.509L706.944 315.526C706.944 315.47 706.881 315.47 706.819 315.526L687.669 341.724C687.669 341.786 687.731 341.842 687.731 341.786Z" fill="#B7699A"/>
<path d="M710.288 329.565L707 315.526" stroke="#B7699A" stroke-width="4" stroke-linecap="round" stroke-linejoin="round"/>
<path d="M300.719 586.474C307.1 586.474 312.275 581.301 312.275 574.922C312.275 568.542 307.1 563.369 300.719 563.369C294.338 563.369 289.169 568.542 289.169 574.922C289.169 581.301 294.338 586.474 300.719 586.474Z" fill="white"/>
<path d="M670.65 139.504C676.988 139.504 682.131 134.368 682.131 128.026C682.131 121.685 676.988 116.549 670.65 116.549C664.306 116.549 659.169 121.685 659.169 128.026C659.169 134.368 664.306 139.504 670.65 139.504Z" fill="white"/>
</g>
<defs>
<clipPath id="clip0_133_90">
<rect width="1000" height="749.751" fill="white"/>
</clipPath>
</defs>
</svg>
